<?xml version="1.0" encoding="utf-8"?>
<!-- Generator: Adobe Illustrator 27.2.0, SVG Export Plug-In . SVG Version: 6.00 Build 0)  -->
<svg version="1.1" id="Layer_1" xmlns="http://www.w3.org/2000/svg" xmlns:xlink="http://www.w3.org/1999/xlink" x="0px" y="0px"
	 viewBox="0 0 233.4 54.2" style="enable-background:new 0 0 233.4 54.2;" xml:space="preserve">
<style type="text/css">
	.st0{fill:#0047BA;}
</style>
<g>
	<path class="st0" d="M3,3.2h5.7L15,13.3l6.3-10.1H27v24h-5.2V11.5L15,21.8h-0.1L8.2,11.6v15.6H3V3.2z M41.6,3h4.9l10.3,24.1h-5.5
		l-2.2-5.4H38.9l-2.2,5.4h-5.4L41.6,3L41.6,3z M47.2,17.1L44,9.4l-3.2,7.8H47.2z M61.2,3.2h4.9L77.3,18V3.2h5.2v24H78L66.4,12v15.2
		h-5.2C61.2,27.2,61.2,3.2,61.2,3.2z M88.9,3.2h9.8c5.6,0,9.2,3.3,9.2,8.4c0,5.6-4.3,8.4-9.7,8.4h-4v7.2h-5.3L88.9,3.2L88.9,3.2z
		 M98.4,15.3c2.7,0,4.2-1.6,4.2-3.6c0-2.4-1.5-3.7-4.3-3.7h-4.1v7.3H98.4z M112.5,3.2h18.1v4.7h-12.8v4.9h11.3v4.7h-11.3v5h13v4.7
		h-18.3C112.5,27.2,112.5,3.2,112.5,3.2z M141.8,8.1h-7.3V3.2h19.9v4.9H147v19.1h-5.3L141.8,8.1L141.8,8.1z M158.6,3.2h10.9
		c5.6,0,9,2.9,9,8c0,3.9-2.1,6.3-5.1,7.4l5.9,8.6h-6.2l-5.1-7.7h-4.2v7.7h-5.3V3.2z M169.2,14.9c2.6,0,4.1-1.4,4.1-3.4
		c0-2.3-1.4-3.5-4.1-3.5h-5.3v6.9L169.2,14.9L169.2,14.9z M182.7,15.3c0-7,5.5-12.5,12.8-12.5s12.7,5.5,12.7,12.3v0.1
		c0,6.8-5.4,12.4-12.8,12.4S182.7,22.1,182.7,15.3 M202.6,15.3c0-4.3-3.1-7.6-7.3-7.6s-7.2,3.2-7.2,7.5s3,7.5,7.3,7.5
		S202.6,19.4,202.6,15.3 M213.2,3.2h5.3v19.2h12v4.8h-17.2L213.2,3.2L213.2,3.2z"/>
	<g>
		<path class="st0" d="M6.8,44c2.2,0.5,3.3,1.3,3.3,3c0,1.9-1.5,3.1-3.7,3.1c-1.6,0-3.1-0.5-4.3-1.7l1.1-1.3c1,0.9,2,1.3,3.3,1.3
			c1.1,0,1.8-0.5,1.8-1.3c0-0.8-0.4-1.2-2.3-1.6c-2.2-0.5-3.4-1.2-3.4-3.1c0-1.8,1.5-3,3.5-3c1.5,0,2.7,0.5,3.7,1.3l-1,1.4
			c-0.9-0.7-1.9-1.1-2.8-1.1c-1.1,0-1.7,0.5-1.7,1.2C4.3,43.2,4.8,43.6,6.8,44"/>
		<path class="st0" d="M17.3,45.6c-0.1-1.2-0.8-2.1-2-2.1c-1.1,0-1.9,0.8-2,2.1H17.3z M15.6,48.7c0.9,0,1.5-0.3,2.1-0.9l1,0.9
			c-0.7,0.9-1.8,1.5-3.2,1.5c-2.3,0-4-1.6-4-4.1c0-2.2,1.6-4.1,3.8-4.1c2.5,0,3.7,1.9,3.7,4.2c0,0.2,0,0.3,0,0.5h-5.7
			C13.6,48,14.4,48.7,15.6,48.7"/>
		<path class="st0" d="M22.7,50h-1.8v-7.8h1.8V44c0.5-1.2,1.4-2,2.8-1.9V44h-0.1c-1.6,0-2.7,1-2.7,3.1V50L22.7,50z"/>
		<polygon class="st0" points="32.4,42.2 34.2,42.2 31.1,50.1 29.4,50.1 26.3,42.2 28.2,42.2 30.3,48 		"/>
		<path class="st0" d="M35.9,42.2h1.8V50h-1.8C35.9,50,35.9,42.2,35.9,42.2z M35.8,39.4h1.9v1.7h-1.9V39.4z"/>
		<path class="st0" d="M43.6,50.2c-2.3,0-4-1.8-4-4c0-2.2,1.7-4.1,4-4.1c1.5,0,2.4,0.5,3.1,1.3l-1.1,1.2c-0.5-0.6-1.1-1-2-1
			c-1.3,0-2.2,1.1-2.2,2.5s1,2.5,2.3,2.5c0.8,0,1.5-0.4,2-1l1.1,1.1C46,49.6,45.1,50.2,43.6,50.2"/>
		<path class="st0" d="M48.5,42.2h1.8V50h-1.8V42.2z M48.4,39.4h1.9v1.7h-1.9V39.4z"/>
		<path class="st0" d="M56.3,43.6c-1.4,0-2.3,1.1-2.3,2.5s1,2.5,2.4,2.5s2.4-1.1,2.4-2.5C58.7,44.8,57.7,43.6,56.3,43.6 M56.3,50.2
			c-2.4,0-4.1-1.8-4.1-4c0-2.2,1.8-4.1,4.2-4.1s4.1,1.8,4.1,4.1S58.7,50.2,56.3,50.2"/>
		<path class="st0" d="M65,50.2c-1.1,0-2.3-0.4-3.3-1.2l0.8-1.2c0.8,0.6,1.8,1,2.5,1c0.8,0,1.2-0.3,1.2-0.8v0c0-0.6-0.8-0.8-1.7-1.1
			C63.3,46.5,62,46,62,44.5v0c0-1.5,1.2-2.4,2.8-2.4c1,0,2,0.3,2.9,0.9L67,44.3c-0.8-0.5-1.5-0.7-2.2-0.7c-0.7,0-1.1,0.3-1.1,0.8v0
			c0,0.6,0.8,0.8,1.8,1.1c1.1,0.4,2.4,0.9,2.4,2.3v0C67.8,49.4,66.6,50.2,65,50.2"/>
		<path class="st0" d="M77.7,43.6c-1.2,0-2.2,0.9-2.2,2.5s1,2.5,2.2,2.5c1.2,0,2.3-1,2.3-2.5S78.9,43.6,77.7,43.6 M79.9,52.4v-3.7
			c-0.6,0.8-1.4,1.5-2.7,1.5c-1.8,0-3.6-1.5-3.6-4.1c0-2.6,1.8-4.1,3.6-4.1c1.3,0,2.1,0.6,2.7,1.4v-1.2h1.8v10.1H79.9z"/>
		<path class="st0" d="M89.1,42.2h1.8V50h-1.8v-1.2c-0.5,0.7-1.2,1.4-2.4,1.4c-1.8,0-2.8-1.2-2.8-3v-5h1.8v4.4
			c0,1.2,0.6,1.9,1.7,1.9c1.1,0,1.8-0.7,1.8-1.9V42.2L89.1,42.2z"/>
		<path class="st0" d="M98.4,45.6c-0.1-1.2-0.8-2.1-2-2.1c-1.1,0-1.9,0.8-2,2.1H98.4z M96.7,48.7c0.9,0,1.5-0.3,2.1-0.9l1,0.9
			c-0.7,0.9-1.8,1.5-3.2,1.5c-2.3,0-4-1.6-4-4.1c0-2.2,1.6-4.1,3.8-4.1c2.5,0,3.7,1.9,3.7,4.2c0,0.2,0,0.3,0,0.5h-5.7
			C94.6,48,95.5,48.7,96.7,48.7"/>
	</g>
	<path class="st0" d="M106.8,42.2h1.8V50h-1.8C106.8,50,106.8,42.2,106.8,42.2z M106.7,39.3h1.9V41h-1.9V39.3z"/>
	<path class="st0" d="M120,42c1.7,0,2.7,1.1,2.7,3v5h-1.8v-4.4c0-1.2-0.6-1.9-1.6-1.9s-1.7,0.7-1.7,1.9V50h-1.8v-4.4
		c0-1.2-0.6-1.9-1.6-1.9c-1,0-1.7,0.7-1.7,1.9V50h-1.8v-7.8h1.8v1.2c0.5-0.7,1.2-1.3,2.4-1.3c1.1,0,1.9,0.5,2.3,1.4
		C118,42.6,118.8,42,120,42"/>
	<path class="st0" d="M128.9,43.6c-1.2,0-2.3,1-2.3,2.5c0,1.5,1.1,2.5,2.3,2.5s2.2-1,2.2-2.5S130.1,43.6,128.9,43.6 M129.3,50.1
		c-1.3,0-2.1-0.6-2.6-1.4v3.6h-1.8V42.2h1.8v1.3c0.6-0.8,1.4-1.5,2.6-1.5c1.8,0,3.6,1.5,3.6,4.1C132.9,48.7,131.2,50.1,129.3,50.1"
		/>
	<path class="st0" d="M139.9,42.2h1.8V50h-1.8v-1.2c-0.5,0.7-1.2,1.4-2.4,1.4c-1.8,0-2.8-1.2-2.8-3v-5h1.8v4.4
		c0,1.2,0.6,1.9,1.7,1.9c1.1,0,1.8-0.7,1.8-1.9V42.2L139.9,42.2z"/>
	<rect x="144" y="39.2" class="st0" width="1.8" height="10.8"/>
	<path class="st0" d="M150.8,50.1c-1.1,0-2.3-0.4-3.3-1.2l0.8-1.2c0.8,0.6,1.8,1,2.5,1s1.2-0.3,1.2-0.8v0c0-0.6-0.8-0.8-1.7-1.1
		c-1.2-0.3-2.4-0.8-2.4-2.3v0c0-1.5,1.2-2.4,2.8-2.4c1,0,2,0.3,2.9,0.9l-0.7,1.3c-0.8-0.5-1.5-0.7-2.2-0.7c-0.7,0-1.1,0.3-1.1,0.8v0
		c0,0.6,0.8,0.8,1.8,1.1c1.1,0.4,2.4,0.9,2.4,2.3v0C153.7,49.3,152.4,50.1,150.8,50.1"/>
	<path class="st0" d="M160.3,46.7c-0.5-0.2-1.1-0.3-1.8-0.3c-1.1,0-1.8,0.5-1.8,1.3v0c0,0.7,0.7,1.2,1.5,1.2c1.2,0,2.1-0.7,2.1-1.6
		L160.3,46.7L160.3,46.7z M160.2,50v-1c-0.5,0.6-1.3,1.1-2.5,1.1c-1.5,0-2.8-0.8-2.8-2.4v0c0-1.7,1.3-2.5,3.2-2.5
		c0.9,0,1.5,0.1,2.2,0.3v-0.2c0-1.1-0.7-1.7-1.9-1.7c-0.9,0-1.5,0.2-2.2,0.5l-0.5-1.4c0.9-0.4,1.7-0.6,3-0.6c2.3,0,3.4,1.2,3.4,3.3
		V50L160.2,50L160.2,50z"/>
	<path class="st0" d="M165.9,50h-1.8v-7.8h1.8v1.2c0.5-0.7,1.2-1.4,2.4-1.4c1.8,0,2.8,1.2,2.8,3v5h-1.8v-4.4c0-1.2-0.6-1.9-1.7-1.9
		c-1.1,0-1.8,0.7-1.8,1.9V50L165.9,50z"/>
	<polygon class="st0" points="185.5,41.3 179.7,41.3 179.7,44 184.9,44 184.9,45.6 179.7,45.6 179.7,48.4 185.6,48.4 185.6,50 
		177.9,50 177.9,39.7 185.5,39.7 	"/>
	<path class="st0" d="M189.3,50h-1.8v-7.8h1.8v1.2c0.5-0.7,1.2-1.4,2.4-1.4c1.8,0,2.8,1.2,2.8,3v5h-1.8v-4.4c0-1.2-0.6-1.9-1.7-1.9
		c-1.1,0-1.8,0.7-1.8,1.9V50L189.3,50z"/>
	<path class="st0" d="M202,45.6c-0.1-1.2-0.8-2.1-2-2.1c-1.1,0-1.9,0.8-2,2.1H202z M200.3,48.7c0.9,0,1.5-0.3,2.1-0.9l1,0.9
		c-0.7,0.9-1.8,1.5-3.2,1.5c-2.3,0-4-1.6-4-4.1c0-2.2,1.6-4.1,3.8-4.1c2.5,0,3.7,1.9,3.7,4.2c0,0.2,0,0.3,0,0.5H198
		C198.2,48,199.1,48.7,200.3,48.7"/>
	<path class="st0" d="M207.4,50h-1.8v-7.8h1.8v1.8c0.5-1.2,1.4-2,2.8-1.9v1.9H210c-1.6,0-2.7,1-2.7,3.1V50L207.4,50z"/>
	<path class="st0" d="M215.1,43.5c-1.2,0-2.2,0.9-2.2,2.2c0,1.3,1,2.2,2.2,2.2s2.3-0.9,2.3-2.2C217.3,44.4,216.3,43.5,215.1,43.5
		 M214.9,52.4c-1.3,0-2.5-0.3-3.5-0.9l0.7-1.3c0.8,0.5,1.7,0.8,2.8,0.8c1.6,0,2.5-0.8,2.5-2.4v-0.6c-0.6,0.8-1.5,1.4-2.7,1.4
		c-1.8,0-3.5-1.3-3.5-3.7s1.7-3.7,3.5-3.7c1.3,0,2.1,0.6,2.7,1.3v-1.2h1.8v6.2C219.1,51.2,217.6,52.4,214.9,52.4"/>
	<path class="st0" d="M221.5,41.2l1.6-2.4l1.6,0.7l-1.8,1.7L221.5,41.2L221.5,41.2z M221.4,42.2h1.8V50h-1.8V42.2z"/>
	<path class="st0" d="M230.3,46.7c-0.5-0.2-1.1-0.3-1.8-0.3c-1.1,0-1.8,0.5-1.8,1.3v0c0,0.7,0.7,1.2,1.5,1.2c1.2,0,2.1-0.7,2.1-1.6
		L230.3,46.7L230.3,46.7z M230.3,50v-1c-0.5,0.6-1.3,1.1-2.5,1.1c-1.5,0-2.8-0.8-2.8-2.4v0c0-1.7,1.3-2.5,3.2-2.5
		c0.9,0,1.5,0.1,2.2,0.3v-0.2c0-1.1-0.7-1.7-1.9-1.7c-0.9,0-1.5,0.2-2.2,0.5l-0.5-1.4c0.9-0.4,1.7-0.6,3-0.6c2.3,0,3.4,1.2,3.4,3.3
		V50L230.3,50L230.3,50z"/>
</g>
</svg>
