<?xml version="1.0" encoding="utf-8"?>
<!-- Generator: Adobe Illustrator 27.2.0, SVG Export Plug-In . SVG Version: 6.00 Build 0)  -->
<svg version="1.1" id="Layer_1" xmlns="http://www.w3.org/2000/svg" xmlns:xlink="http://www.w3.org/1999/xlink" x="0px" y="0px"
	 viewBox="0 0 233.4 28.7" style="enable-background:new 0 0 233.4 28.7;" xml:space="preserve">
<style type="text/css">
	.st0{fill:#FFFFFF;}
</style>
<g>
	<path class="st0" d="M3,3.2h5.7L15,13.3l6.3-10.1H27v24h-5.2V11.5L15,21.8h-0.1L8.2,11.6v15.6H3V3.2z M41.6,3h4.9l10.3,24.1h-5.5
		l-2.2-5.4H38.9l-2.2,5.4h-5.4L41.6,3L41.6,3z M47.2,17.1L44,9.4l-3.2,7.8h6.4V17.1z M61.2,3.2h4.9L77.3,18V3.2h5.2v24H78L66.4,12
		v15.2h-5.2V3.2z M88.9,3.2h9.8c5.6,0,9.2,3.3,9.2,8.4c0,5.6-4.3,8.4-9.7,8.4h-4v7.2h-5.3V3.2L88.9,3.2z M98.4,15.3
		c2.7,0,4.2-1.6,4.2-3.6c0-2.4-1.5-3.7-4.3-3.7h-4.1v7.3C94.2,15.3,98.4,15.3,98.4,15.3z M112.5,3.2h18.1v4.7h-12.8v4.9h11.3v4.7
		h-11.3v5h13v4.7h-18.3V3.2z M141.8,8.1h-7.3V3.2h19.9v4.9H147v19.1h-5.3L141.8,8.1L141.8,8.1z M158.6,3.2h10.9c5.6,0,9,2.9,9,8
		c0,3.9-2.1,6.3-5.1,7.4l5.9,8.6h-6.2l-5.1-7.7h-4.2v7.7h-5.3v-24C158.5,3.2,158.6,3.2,158.6,3.2z M169.2,14.9
		c2.6,0,4.1-1.4,4.1-3.4c0-2.3-1.4-3.5-4.1-3.5h-5.3v6.9H169.2L169.2,14.9z M182.7,15.3c0-7,5.5-12.5,12.8-12.5s12.7,5.5,12.7,12.3
		v0.1c0,6.8-5.4,12.4-12.8,12.4S182.7,22.1,182.7,15.3 M202.6,15.3c0-4.3-3.1-7.6-7.3-7.6s-7.2,3.2-7.2,7.5s3,7.5,7.3,7.5
		S202.6,19.4,202.6,15.3 M213.2,3.2h5.3v19.2h12v4.8h-17.2L213.2,3.2L213.2,3.2z"/>
</g>
</svg>
