<svg xmlns="http://www.w3.org/2000/svg" id="Capa_1" height="512" viewBox="0 0 512.001 512.001" width="512" style=" fill: #54595F;"><g><path d="m105.336 241.416 6.568 6.749c11.971 12.299 31.641 12.577 43.953.594l35.271-34.331c9.136-8.893 10.258-24.411-.197-34.588l-35.074-34.14c-12.281-11.954-31.999-11.688-43.953.594l-6.568 6.749c-2.889 2.968-2.824 7.716.144 10.605l34.5 33.582-34.5 33.581c-2.968 2.889-3.033 7.637-.144 10.605zm50.628-38.812c1.45-1.412 2.269-3.35 2.269-5.375s-.818-3.962-2.269-5.375l-34.647-33.725 1.338-1.375c6.199-6.368 16.37-6.507 22.74-.307l35.074 34.14c4.102 3.993 3.645 9.734.197 13.09l-35.271 34.331c-6.247 6.08-16.435 6.172-22.74-.307l-1.338-1.374z"/><path d="m407.576 320.402c-14.459 0-26.223 11.764-26.223 26.223 0 14.46 11.764 26.224 26.223 26.224 14.46 0 26.224-11.764 26.224-26.224 0-14.459-11.764-26.223-26.224-26.223zm0 37.446c-6.188 0-11.223-5.035-11.223-11.224s5.034-11.223 11.223-11.223 11.224 5.034 11.224 11.223-5.035 11.224-11.224 11.224z"/><path d="m100.678 346.625c0 14.46 11.764 26.224 26.224 26.224 14.459 0 26.223-11.764 26.223-26.224 0-14.459-11.764-26.223-26.223-26.223-14.461 0-26.224 11.764-26.224 26.223zm37.446 0c0 6.188-5.034 11.224-11.223 11.224s-11.224-5.035-11.224-11.224 5.035-11.223 11.224-11.223 11.223 5.034 11.223 11.223z"/><path d="m504.363 237.609-115.658-126.562c-5.526-6.047-13.394-9.515-21.586-9.515h-290.898c-4.143 0-7.5 3.358-7.5 7.5s3.357 7.5 7.5 7.5h183.525v180.167h-93.123c-10.911-8.699-24.715-13.917-39.722-13.917s-28.811 5.218-39.723 13.917h-72.177v-72.449h4.24c4.143 0 7.5-3.358 7.5-7.5s-3.357-7.5-7.5-7.5h-4.24v-88.112c0-2.539 2.065-4.605 4.604-4.605h26.628c4.143 0 7.5-3.358 7.5-7.5s-3.357-7.5-7.5-7.5h-26.628c-10.81 0-19.604 8.795-19.604 19.605v95.593c0 .007-.001.013-.001.019s.001.013.001.019v87.411c0 .007-.001.013-.001.019s.001.013.001.019v31.589c0 8.338 6.783 15.121 15.12 15.121h23.612v7.729h-27.233c-4.143 0-7.5 3.357-7.5 7.5s3.357 7.5 7.5 7.5h34.733c4.143 0 7.5-3.357 7.5-7.5v-15.229h9.484c2.223 33.203 29.927 59.542 63.684 59.542 14.744 0 29.13-5.148 40.509-14.498 3.2-2.63 3.663-7.356 1.033-10.557-2.632-3.201-7.358-3.661-10.557-1.033-8.701 7.15-19.706 11.088-30.985 11.088-26.933 0-48.845-21.912-48.845-48.845s21.912-48.844 48.845-48.844 48.844 21.911 48.844 48.844c0 5.558-.936 11.026-2.78 16.255-1.379 3.906.671 8.19 4.576 9.568 3.909 1.381 8.19-.671 9.568-4.576 1.935-5.481 3.09-11.165 3.478-16.944h153.306c2.223 33.203 29.927 59.542 63.683 59.542 33.757 0 61.461-26.339 63.684-59.542h18.217c12.42 0 22.524-10.104 22.524-22.523v-71.12c0-7.301-2.713-14.289-7.638-19.676zm-489.362 98.197v-24.108h58.497c-4.726 7.202-8.032 15.409-9.527 24.229h-48.85c-.066 0-.12-.054-.12-.121zm362.632-214.64 89.158 97.563h-25.73l-20.025-20.025 2.144-2.144c2.93-2.929 2.93-7.677.001-10.606s-7.678-2.93-10.606 0l-7.431 7.431c-.006.006-.012.01-.018.016s-.01.012-.016.018l-7.43 7.43c-2.93 2.929-2.93 7.677-.001 10.606 1.465 1.465 3.384 2.197 5.304 2.197 1.919 0 3.839-.732 5.303-2.197l2.144-2.144 9.418 9.418h-53.862l-2.664-19.444c-.562-4.104-4.341-6.975-8.448-6.413-4.104.562-6.976 4.345-6.413 8.449l2.385 17.408h-21.841c-.572 0-1.037-.465-1.037-1.037v-65.802h8.28c3.103 0 5.76 2.318 6.181 5.393l1.925 14.051c.515 3.758 3.73 6.483 7.421 6.483.339 0 .683-.023 1.027-.07 4.104-.562 6.976-4.345 6.413-8.449l-1.925-14.051c-1.433-10.465-10.479-18.357-21.042-18.357h-8.28v-20.359h39.152c3.989 0 7.821 1.689 10.513 4.635zm-102.887-4.635h38.221v101.161c0 8.843 7.194 16.037 16.037 16.037h151.495c9.821 11.908 16.502 14.852 16.502 23.555v10.078h-7.432c-4.143 0-7.5 3.357-7.5 7.5s3.357 7.5 7.5 7.5h7.432v14.336h-49.702c-10.911-8.699-24.715-13.917-39.723-13.917-15.007 0-28.811 5.218-39.722 13.917h-93.108zm69.9 219.396h-69.9v-24.229h79.427c-4.726 7.202-8.032 15.409-9.527 24.229zm-84.9 0h-69.915c-1.495-8.82-4.801-17.028-9.527-24.229h79.442zm147.83 59.542c-26.933 0-48.844-21.912-48.844-48.845s21.911-48.844 48.844-48.844 48.845 21.911 48.845 48.844-21.912 48.845-48.845 48.845zm81.901-59.542h-18.969c-1.495-8.82-4.801-17.028-9.527-24.229h36.021v16.706c-.001 4.148-3.376 7.523-7.525 7.523z"/></g></svg>